<svg version="1.1" id="Layer_1" xmlns="http://www.w3.org/2000/svg" xmlns:xlink="http://www.w3.org/1999/xlink" x="0px" y="0px"
	 viewBox="0 0 10 7" style="enable-background:new 0 0 10 7;" xml:space="preserve">
<style type="text/css">
	.st0{fill:#FFFEF2; }
</style>
<g>
	<path class="st0" d="M9.34,1.84H0.66C0.3,1.84,0,1.55,0,1.18V0.66C0,0.3,0.3,0,0.66,0l8.68,0C9.7,0,10,0.3,10,0.66v0.53
		C10,1.55,9.7,1.84,9.34,1.84z"/>
</g>
<g>
	<path class="st0" d="M9.34,4.42H0.66C0.3,4.42,0,4.13,0,3.76V3.24c0-0.36,0.3-0.66,0.66-0.66h8.68C9.7,2.58,10,2.87,10,3.24v0.53
		C10,4.13,9.7,4.42,9.34,4.42z"/>
</g>
<g>
	<path class="st0" d="M9.34,7H0.66C0.3,7,0,6.7,0,6.34V5.82c0-0.36,0.3-0.66,0.66-0.66h8.68C9.7,5.16,10,5.45,10,5.82v0.53
		C10,6.7,9.7,7,9.34,7z"/>
</g>
</svg>
